<?xml version="1.0" encoding="UTF-8"?>
<svg width="115px" height="25px" viewBox="0 0 115 25" version="1.1" xmlns="http://www.w3.org/2000/svg" xmlns:xlink="http://www.w3.org/1999/xlink">
    <title>andante</title>
    <g id="Page-1" stroke="none" stroke-width="1" fill="none" fill-rule="evenodd">
        <path d="M5.40625,24.21875 C6.61458333,24.21875 7.67708333,23.9791667 8.59375,23.5 C9.51041667,23.0208333 10.28125,22.2916667 10.90625,21.3125 L10.90625,21.3125 L10.90625,24 L13.5625,24 L13.5625,14.234375 C13.5625,12.0052083 13.0625,10.3333333 12.0625,9.21875 C11.0625,8.10416667 9.56770833,7.546875 7.578125,7.546875 C6.56770833,7.546875 5.61979167,7.64322917 4.734375,7.8359375 C3.84895833,8.02864583 3.00520833,8.31770833 2.203125,8.703125 L2.203125,8.703125 L2.234375,11.140625 C3.02604167,10.6927083 3.796875,10.3567708 4.546875,10.1328125 C5.296875,9.90885417 6.02083333,9.796875 6.71875,9.796875 C7.95833333,9.796875 8.9296875,10.1458333 9.6328125,10.84375 C10.3359375,11.5416667 10.6875,12.515625 10.6875,13.765625 L10.6875,13.765625 L10.6875,14.078125 L8.59375,14.078125 C5.90625,14.078125 3.84895833,14.5416667 2.421875,15.46875 C0.994791667,16.3958333 0.28125,17.734375 0.28125,19.484375 C0.28125,20.890625 0.752604167,22.03125 1.6953125,22.90625 C2.63802083,23.78125 3.875,24.21875 5.40625,24.21875 Z M6.171875,22.078125 C5.30729167,22.078125 4.60416667,21.8203125 4.0625,21.3046875 C3.52083333,20.7890625 3.25,20.1302083 3.25,19.328125 C3.25,18.2760417 3.7265625,17.46875 4.6796875,16.90625 C5.6328125,16.34375 7.00520833,16.0625 8.796875,16.0625 L8.796875,16.0625 L10.6875,16.0625 L10.6875,17.25 C10.6875,18.71875 10.2760417,19.890625 9.453125,20.765625 C8.63020833,21.640625 7.53645833,22.078125 6.171875,22.078125 Z M21.353403,24 L21.353403,15.8125 C21.353403,14.0208333 21.7362155,12.6223958 22.5018405,11.6171875 C23.2674655,10.6119792 24.3169447,10.109375 25.650278,10.109375 C26.869028,10.109375 27.7700697,10.5078125 28.353403,11.3046875 C28.9367363,12.1015625 29.228403,13.3229167 29.228403,14.96875 L29.228403,14.96875 L29.228403,24 L32.212778,24 L32.212778,14.296875 C32.212778,12.0885417 31.7466322,10.4114583 30.8143405,9.265625 C29.8820488,8.11979167 28.509653,7.546875 26.697153,7.546875 C25.4367363,7.546875 24.337778,7.828125 23.400278,8.390625 C22.462778,8.953125 21.697153,9.79166667 21.103403,10.90625 L21.103403,10.90625 L21.103403,7.9375 L18.384653,7.9375 L18.384653,24 L21.353403,24 Z M42.543264,24.25 C43.793264,24.25 44.8896182,23.9557292 45.8323265,23.3671875 C46.7750348,22.7786458 47.558889,21.9010417 48.183889,20.734375 L48.183889,20.734375 L48.183889,24 L50.902639,24 L50.902639,0.09375 L47.918264,0.09375 L47.918264,10.5 C47.324514,9.52083333 46.5797223,8.78385417 45.683889,8.2890625 C44.7880557,7.79427083 43.762014,7.546875 42.605764,7.546875 C40.6161807,7.546875 39.0146182,8.29166667 37.8010765,9.78125 C36.5875348,11.2708333 35.980764,13.25 35.980764,15.71875 C35.980764,18.21875 36.5979515,20.265625 37.8323265,21.859375 C39.0667015,23.453125 40.637014,24.25 42.543264,24.25 Z M43.402639,21.859375 C42.1005557,21.859375 41.0614932,21.3255208 40.2854515,20.2578125 C39.5094098,19.1901042 39.121389,17.7395833 39.121389,15.90625 C39.121389,14.0520833 39.5042015,12.5807292 40.2698265,11.4921875 C41.0354515,10.4036458 42.058889,9.859375 43.340139,9.859375 C44.7568057,9.859375 45.8739932,10.3958333 46.6917015,11.46875 C47.5094098,12.5416667 47.918264,14.0208333 47.918264,15.90625 C47.918264,17.7083333 47.5042015,19.1510417 46.6760765,20.234375 C45.8479515,21.3177083 44.7568057,21.859375 43.402639,21.859375 Z M59.669583,24.21875 C60.8779163,24.21875 61.9404163,23.9791667 62.857083,23.5 C63.7737497,23.0208333 64.544583,22.2916667 65.169583,21.3125 L65.169583,21.3125 L65.169583,24 L67.825833,24 L67.825833,14.234375 C67.825833,12.0052083 67.325833,10.3333333 66.325833,9.21875 C65.325833,8.10416667 63.8310413,7.546875 61.841458,7.546875 C60.8310413,7.546875 59.8831247,7.64322917 58.997708,7.8359375 C58.1122913,8.02864583 57.2685413,8.31770833 56.466458,8.703125 L56.466458,8.703125 L56.497708,11.140625 C57.2893747,10.6927083 58.060208,10.3567708 58.810208,10.1328125 C59.560208,9.90885417 60.2841663,9.796875 60.982083,9.796875 C62.2216663,9.796875 63.1930205,10.1458333 63.8961455,10.84375 C64.5992705,11.5416667 64.950833,12.515625 64.950833,13.765625 L64.950833,13.765625 L64.950833,14.078125 L62.857083,14.078125 C60.169583,14.078125 58.1122913,14.5416667 56.685208,15.46875 C55.2581247,16.3958333 54.544583,17.734375 54.544583,19.484375 C54.544583,20.890625 55.0159372,22.03125 55.9586455,22.90625 C56.9013538,23.78125 58.138333,24.21875 59.669583,24.21875 Z M60.435208,22.078125 C59.5706247,22.078125 58.8674997,21.8203125 58.325833,21.3046875 C57.7841663,20.7890625 57.513333,20.1302083 57.513333,19.328125 C57.513333,18.2760417 57.9898955,17.46875 58.9430205,16.90625 C59.8961455,16.34375 61.2685413,16.0625 63.060208,16.0625 L63.060208,16.0625 L64.950833,16.0625 L64.950833,17.25 C64.950833,18.71875 64.5393747,19.890625 63.716458,20.765625 C62.8935413,21.640625 61.7997913,22.078125 60.435208,22.078125 Z M75.616736,24 L75.616736,15.8125 C75.616736,14.0208333 75.9995485,12.6223958 76.7651735,11.6171875 C77.5307985,10.6119792 78.5802777,10.109375 79.913611,10.109375 C81.132361,10.109375 82.0334027,10.5078125 82.616736,11.3046875 C83.2000693,12.1015625 83.491736,13.3229167 83.491736,14.96875 L83.491736,14.96875 L83.491736,24 L86.476111,24 L86.476111,14.296875 C86.476111,12.0885417 86.0099652,10.4114583 85.0776735,9.265625 C84.1453818,8.11979167 82.772986,7.546875 80.960486,7.546875 C79.7000693,7.546875 78.601111,7.828125 77.663611,8.390625 C76.726111,8.953125 75.960486,9.79166667 75.366736,10.90625 L75.366736,10.90625 L75.366736,7.9375 L72.647986,7.9375 L72.647986,24 L75.616736,24 Z M96.195139,24.28125 C96.6118057,24.28125 97.0206598,24.2552083 97.4217015,24.203125 C97.8227432,24.1510417 98.2211807,24.0729167 98.617014,23.96875 L98.617014,23.96875 L98.585764,21.625 C98.2524307,21.75 97.9503473,21.8411458 97.679514,21.8984375 C97.4086807,21.9557292 97.1690973,21.984375 96.960764,21.984375 C96.1274307,21.984375 95.5284723,21.7213542 95.163889,21.1953125 C94.7993057,20.6692708 94.617014,19.78125 94.617014,18.53125 L94.617014,18.53125 L94.617014,10.203125 L98.460764,10.203125 L98.460764,7.9375 L94.617014,7.9375 L94.617014,2.96875 L91.742014,3.96875 L91.742014,7.9375 L88.413889,7.9375 L88.413889,10.203125 L91.648264,10.203125 L91.648264,18.8125 C91.648264,20.78125 91.9998265,22.1848958 92.7029515,23.0234375 C93.4060765,23.8619792 94.570139,24.28125 96.195139,24.28125 Z M108.513125,24.390625 C109.523542,24.390625 110.448021,24.3151042 111.286563,24.1640625 C112.125104,24.0130208 112.898542,23.7864583 113.606875,23.484375 L113.606875,23.484375 L113.606875,20.921875 C112.836042,21.328125 112.086042,21.6276042 111.356875,21.8203125 C110.627708,22.0130208 109.893333,22.109375 109.15375,22.109375 C107.476667,22.109375 106.145938,21.6328125 105.161563,20.6796875 C104.177188,19.7265625 103.627708,18.390625 103.513125,16.671875 L103.513125,16.671875 L114.888125,16.671875 L114.888125,15.453125 C114.888125,12.9947917 114.286563,11.0625 113.083438,9.65625 C111.880313,8.25 110.226667,7.546875 108.1225,7.546875 C105.893333,7.546875 104.088646,8.3046875 102.708438,9.8203125 C101.328229,11.3359375 100.638125,13.3333333 100.638125,15.8125 C100.638125,18.4583333 101.34125,20.5494792 102.7475,22.0859375 C104.15375,23.6223958 106.075625,24.390625 108.513125,24.390625 Z M112.09125,14.6875 L103.59125,14.6875 C103.7475,13.1458333 104.21625,11.9296875 104.9975,11.0390625 C105.77875,10.1484375 106.768333,9.703125 107.96625,9.703125 C109.174583,9.703125 110.138125,10.1328125 110.856875,10.9921875 C111.575625,11.8515625 111.987083,13.0833333 112.09125,14.6875 L112.09125,14.6875 Z" id="andante" fill="#333333" fill-rule="nonzero"></path>
    </g>
</svg>
