<?xml version="1.0" encoding="UTF-8"?>
<svg width="32px" height="32px" viewBox="0 0 32 32" version="1.1" xmlns="http://www.w3.org/2000/svg" xmlns:xlink="http://www.w3.org/1999/xlink">
    <title>Group</title>
    <g id="Page-1" stroke="none" stroke-width="1" fill="none" fill-rule="evenodd">
        <g id="Group">
            <rect id="Rectangle" fill="#FAF8F4" x="0" y="0" width="32" height="32"></rect>
            <path d="M21.0078125,31.2734375 C22.5182292,31.2734375 23.8463542,30.9739583 24.9921875,30.375 C26.1380208,29.7760417 27.1015625,28.8645833 27.8828125,27.640625 L27.8828125,27.640625 L27.8828125,31 L31.203125,31 L31.203125,18.7929688 C31.203125,16.0065104 30.578125,13.9166667 29.328125,12.5234375 C28.078125,11.1302083 26.2096354,10.4335938 23.7226562,10.4335938 C22.4596354,10.4335938 21.2747396,10.5540365 20.1679688,10.7949219 C19.0611979,11.0358073 18.0065104,11.3971354 17.0039062,11.8789062 L17.0039062,11.8789062 L17.0429688,14.9257812 C18.0325521,14.3658854 18.9960938,13.9459635 19.9335938,13.6660156 C20.8710938,13.3860677 21.7760417,13.2460938 22.6484375,13.2460938 C24.1979167,13.2460938 25.4121094,13.6822917 26.2910156,14.5546875 C27.1699219,15.4270833 27.609375,16.6445312 27.609375,18.2070312 L27.609375,18.2070312 L27.609375,18.5976562 L24.9921875,18.5976562 C21.6328125,18.5976562 19.0611979,19.1770833 17.2773438,20.3359375 C15.4934896,21.4947917 14.6015625,23.1679688 14.6015625,25.3554688 C14.6015625,27.1132812 15.1907552,28.5390625 16.3691406,29.6328125 C17.547526,30.7265625 19.09375,31.2734375 21.0078125,31.2734375 Z M21.9648438,28.5976562 C20.8841146,28.5976562 20.0052083,28.2753906 19.328125,27.6308594 C18.6510417,26.9863281 18.3125,26.1627604 18.3125,25.1601562 C18.3125,23.8450521 18.9082031,22.8359375 20.0996094,22.1328125 C21.2910156,21.4296875 23.0065104,21.078125 25.2460938,21.078125 L25.2460938,21.078125 L27.609375,21.078125 L27.609375,22.5625 C27.609375,24.3984375 27.0950521,25.8632812 26.0664062,26.9570312 C25.0377604,28.0507812 23.6705729,28.5976562 21.9648438,28.5976562 Z" id="a" fill="#333333" fill-rule="nonzero"></path>
        </g>
    </g>
</svg>
